<?xml version="1.0" encoding="UTF-8"?>
<svg id="_레이어_2" data-name="레이어 2" xmlns="http://www.w3.org/2000/svg" viewBox="0 0 127.12 84.19">
  <defs>
    <style>
      .cls-1 {
        fill: #462d0d;
      }

      .cls-1, .cls-2, .cls-3, .cls-4, .cls-5, .cls-6, .cls-7 {
        stroke-width: 0px;
      }

      .cls-2 {
        fill: #97d8f1;
      }

      .cls-3 {
        fill: #ff6247;
      }

      .cls-4 {
        fill: #020202;
      }

      .cls-5 {
        fill: #f6d87d;
      }

      .cls-6 {
        fill: #fefefe;
      }

      .cls-7 {
        fill: #af6e16;
      }
    </style>
  </defs>
  <g id="_레이어_1-2" data-name=" 레이어 1">
    <g>
      <path class="cls-4" d="M121.17,79.76c1.15,0,2.34-.05,3.52.01,1.45.07,2.37.87,2.43,2.01.07,1.24-.88,2.2-2.3,2.2-3.07,0-6.14-.08-9.21-.06-16.23.09-32.47.28-48.7.27-16.12-.01-32.24-.24-48.36-.33-5.33-.03-10.66.08-15.98.14-1.08.01-1.98-.31-2.41-1.35-.49-1.19.24-2.47,1.51-2.75,1.43-.32,2.88-.08,4.33-.21.17-.36-.12-.6-.25-.86-7.18-14.91-7.36-29.87-.34-44.88.28-.59.22-.97-.16-1.5-2.13-2.98-3.45-6.31-3.77-9.96-.21-2.3.56-4.38,2.07-6.15,1.39-1.64,2.88-3.23,3.86-5.16,1.73-3.42,4.7-4.87,8.24-5.59,2.55-.52,5.04-.47,7.5.39.49.17.9.11,1.4-.1,3.99-1.73,8.18-1.99,12.44-1.39.83.12,1.55.12,2.34-.17C46.33,1.71,53.57.38,61.02.06c11.04-.46,21.6,1.57,31.61,6.18,11.29,5.21,20.44,12.93,26.93,23.65,5.77,9.53,8.08,19.84,7.07,30.91-.58,6.39-2.39,12.42-5.27,18.14-.1.21-.31.4-.19.81h0ZM118.11,36.95s.06.09.08.13c.01-.04.03-.08.04-.13h-.14c.27-.23.01-.45-.08-.63-.73-1.45-1.4-2.93-2.24-4.32-6.28-10.42-15.27-17.72-26.37-22.46-10.35-4.42-21.2-5.87-32.39-4.92-2.68.23-5.34.65-8.23,1.36,2.28.96,4.05,2.22,5.36,4,1.05,1.42,2.31,2.51,3.8,3.44,2.29,1.43,4.04,3.45,4.43,6.17.53,3.69-.13,7.24-2.27,10.4-1.15,1.7-2.5,3.24-3.81,4.81-1.76,2.11-3.94,2.88-6.61,2.17-.43-.11-.7-.08-.9.4-.44,1.08-1.03,2.09-1.75,3.01-.31.38-.22.67-.02,1.04,1.25,2.42,1.33,4.86.05,7.29-.2.38-.27.64.08,1.01,1.51,1.58,2.47,3.5,3.23,5.53,1.61,4.35,2.12,8.9,2.27,13.49.11,3.47-.21,6.91-.64,10.34-.04.32-.26.76.35.77,1.14.02,2.28,0,3.49,0-3.06-4.46-2.73-5.32-2.92-9.39-.09-2.02.07-4.08.02-6.13-.14-5.75.09-11.5-.26-17.25-.12-1.96.22-3.87.93-5.7,1.94-5.05,6.76-7.99,12.72-7.81,2.72.08,5.43.08,8.15.17.66.02.86-.18.84-.83-.04-1.27-.04-2.54.01-3.81.14-3.24,2.01-5.33,5.23-5.54,4.54-.3,9.1-.31,13.64,0,3.34.22,5.18,2.33,5.29,5.7.04,1.34.06,2.68,0,4.02-.03.71.23.91.91.89,1.09-.04,2.19,0,3.28.02,2.51.04,5.01.08,7.52.15,2.61.07,4.74,1.41,6.92,2.61h-.01ZM96.5,45c0-1.9-.04-3.81,0-5.71.01-.75-.15-1.05-.98-1.06-5.32-.04-10.65-.12-15.97-.23-.88-.02-1.13.22-1.11,1.11.11,4.83.15,9.66.21,14.49.11,8.29.22,16.57.29,24.86,0,.78.23,1.03,1.02,1.03,5.26-.02,10.51-.01,15.77.04.88,0,1.03-.3,1.03-1.09-.03-6.49-.02-12.98-.02-19.47h0s-.24-13.96-.24-13.96ZM27.98,55.54c-2.79-.47-5.33-1.29-7.58-2.81-.65-.44-.97-.26-1.37.25-1.11,1.4-1.85,3-2.37,4.69-2.15,7-1.98,14.12-1.02,21.28.07.52.36.59.8.59,1.52,0,3.04-.01,4.55.06.7.03.81-.22.78-.85-.1-1.8-.17-3.6-.19-5.39-.02-1.52.87-2.53,2.12-2.52,1.21.01,2.03.96,2.09,2.45.08,1.83.18,3.67.19,5.5,0,.71.24.89.91.88,3.25-.01,6.49,0,9.74.06.64.01.86-.12.82-.81-.11-1.83-.17-3.67-.2-5.5-.03-1.54.81-2.55,2.06-2.58,1.24-.03,2.09.94,2.16,2.49.07,1.87.17,3.74.19,5.61,0,.65.21.84.85.83,1.37-.03,2.76-.04,4.13.04.78.05,1.06-.22,1.12-.96.16-1.86.44-3.72.55-5.58.3-5.28.02-10.51-1.58-15.59-.51-1.62-1.21-3.15-2.23-4.53-.41-.55-.77-.81-1.43-.28-.71.57-1.58.92-2.42,1.29-1.55.68-3.19,1.05-4.87,1.41,3.39,4.08,3.59,7.96.59,10.71-2.5,2.29-6.23,2.18-8.7-.24-2.91-2.86-2.83-6.95.34-10.49h0ZM45.25,25.53c.11-2.15.07-4.29-.23-6.44-.62-4.49-2.88-7.78-6.96-9.8-2.2-1.09-4.52-.84-6.85-.7-4.28.25-7.56,2.18-9.96,5.71-1.54,2.26-2.26,4.75-2.26,7.46,0,3.21.15,6.43-.45,9.6-.22,1.15-.32,2.07.22,3.23,1.77,3.85,4.58,6.46,8.51,7.89,6.42,2.33,13.65-.04,16.92-5.49.62-1.03.86-2.25,1.7-3.15.14-.14.11-.31.03-.49-1.04-2.54-.79-5.19-.68-7.83h0ZM4.57,56.53c.02,7.45,2,14.86,5.78,21.79.22.4.21,1.31.86,1.08.45-.15.1-.94.03-1.44-.79-6.24-.77-12.45.57-18.62.79-3.6,1.96-7.07,4.6-9.82.4-.42.11-.7-.05-1.02-.95-1.88-1.1-3.81-.61-5.85.24-1.01,1.44-1.76,1.06-2.8-.36-.99-1.15-1.85-1.58-2.86-.19-.44-.39-.59-.87-.41-1.47.53-2.94.39-4.3-.32-.79-.42-.99-.09-1.28.55-2.77,6.12-4.22,12.53-4.23,19.72h0ZM66.92,43.85c-2.19,3.49-5.17,5.59-9.22,5.99-.81.08-.59.65-.59,1.1.01,5.22.06,10.44.04,15.66,0,.86.27,1.16,1.1,1.23,3.28.29,5.84,1.89,7.88,4.42.18.22.27.59.79.57v-28.96h0ZM108.38,72.24c2.32-2.4,4.79-3.97,7.73-4.74.42-.11.55-.33.56-.74.1-5.25.21-10.51.33-15.76.01-.54-.17-.71-.71-.76-2.57-.23-4.69-1.42-6.5-3.2-.59-.57-1.22-1.1-1.9-1.72.16,8.91.32,17.77.49,26.92h0ZM19.46,9.59c-.9-.27-1.63,0-2.34.09-2.66.37-4.91,1.31-6.17,3.97-.85,1.79-2.17,3.3-3.52,4.74-1.6,1.71-2.05,3.6-1.35,5.84.97,3.11,2.12,6.07,5.13,7.85,1.58.93,2.55.58,3.11-1.18.12-.36.17-.75.22-1.14.33-2.6.19-5.21.21-7.82.03-3.95,1.04-7.59,3.51-10.74.39-.49.75-1,1.21-1.61ZM45.33,9.41c.01.19,0,.24.02.26.17.23.33.46.51.68,1.71,2.05,2.72,4.41,3.19,7.04.62,3.46.58,6.95.33,10.43-.09,1.29,0,2.54.42,3.75.56,1.65,1.85,1.94,3.05.67,1.31-1.39,2.48-2.88,3.6-4.42.87-1.19,1.38-2.52,1.65-3.96.66-3.47.03-5.37-2.58-6.94-1.82-1.1-3.31-2.45-4.58-4.15-1.37-1.84-3.26-2.94-5.61-3.35h0ZM71.1,68.79h-.01v8.05c0,2.53,0,2.5,2.58,2.51.78,0,1.06-.2,1.03-1.01-.11-2.71-.04-5.42-.16-8.14-.24-5.46,0-10.93-.22-16.39-.19-4.51-.06-9.03-.07-13.55,0-2.02,0-1.99-1.89-2.37-.78-.16-1.07-.01-1.08.85-.07,7.12.16,14.25-.16,21.37-.13,2.89-.02,5.79-.02,8.68h0ZM102.64,79.52c.18,0,.36-.03.53,0,1.07.2,1.28-.37,1.16-1.26-.07-.52-.16-1.04-.18-1.57-.12-3.94-.03-7.89-.17-11.83-.24-6.55-.19-13.11-.29-19.66-.03-2-.12-4.01-.19-6.01,0-.2-.01-.53-.13-.58-.73-.35-1.52-.21-2.27-.12-.6.07-.36.68-.35,1.06.06,9.76.14,19.53.2,29.29.02,3.24.03,6.49,0,9.73,0,.73.2,1.06.95.96.24-.03.49,0,.74,0h0ZM32.18,51.6c.8.03,1.93-.04,3.04-.25,2.6-.48,5.07-1.26,7.02-3.16.86-.83,1.46-1.81,1.5-3.05.01-.35.06-.79-.26-.97-.3-.17-.56.19-.82.36-6.6,4.25-15.13,4.06-21.51-.46-.33-.23-.65-.77-1.05-.55-.43.24-.4.86-.44,1.35-.02.21.04.42.08.62.39,1.94,1.79,3.07,3.37,3.99,2.69,1.56,5.64,2.15,9.06,2.13h0ZM117.13,44.33c-.11-1.01-.13-2.43-1.1-3.37-1.61-1.56-3.59-2.45-5.9-2.48-.55,0-.68.15-.5.67,1.02,2.92,2.81,5.2,5.64,6.54,1.48.7,1.73.5,1.86-1.36h0ZM109.17,79.45c2.35.19,4.42,0,6.04-1.82,1.35-1.5,1.48-3.26,1.41-5.13-.03-.62-.18-.73-.73-.49-3.34,1.43-5.57,3.84-6.72,7.43h0ZM65.01,79.47c-.55-1.97-1.38-3.76-2.78-5.25-1.09-1.16-2.42-1.89-4.01-2.18-.69-.12-.93-.02-.9.73.09,3.02,2.91,7,7.69,6.69h0ZM57.55,45.57c.14-.02.28-.03.42-.05,3.58-.59,5.87-3.74,6.49-7.11.12-.67-.33-.44-.65-.4-3.56.45-6.43,3.41-6.8,6.96-.05.5.07.66.54.61h0ZM120.91,67.27c1.94-6.86,2.09-13.76.38-20.69-.12,6.9-.25,13.79-.38,20.69ZM34.22,61.27c0-1.43-1.14-2.69-2.43-2.68-1.15,0-2.01,1.02-2.01,2.39,0,1.47,1.08,2.67,2.42,2.67,1.15,0,2.01-1.01,2.02-2.37h0Z"/>
      <path class="cls-2" d="M118.11,36.95c-2.18-1.21-4.32-2.55-6.92-2.61-2.5-.07-5.01-.1-7.52-.15-1.09-.02-2.19-.06-3.28-.02-.68.03-.93-.17-.91-.89.05-1.34.04-2.68,0-4.02-.11-3.37-1.95-5.48-5.29-5.7-4.54-.31-9.1-.29-13.64,0-3.22.21-5.09,2.3-5.23,5.54-.05,1.27-.05,2.54-.01,3.81.02.65-.18.85-.84.83-2.72-.08-5.43-.08-8.15-.17-5.96-.18-10.78,2.76-12.72,7.81-.71,1.83-1.05,3.74-.93,5.7.35,5.75.12,11.5.26,17.25.05,2.04-.11,4.1-.02,6.13.19,4.07-.14,4.93,2.92,9.39-1.21,0-2.36.01-3.49,0-.61-.01-.39-.45-.35-.77.43-3.43.75-6.88.64-10.34-.15-4.6-.66-9.14-2.27-13.49-.75-2.03-1.71-3.95-3.23-5.53-.35-.37-.28-.62-.08-1.01,1.28-2.44,1.2-4.88-.05-7.29-.19-.37-.28-.66.02-1.04.73-.92,1.31-1.93,1.75-3.01.2-.48.46-.51.9-.4,2.67.7,4.85-.07,6.61-2.17,1.31-1.57,2.66-3.11,3.81-4.81,2.14-3.16,2.8-6.71,2.27-10.4-.39-2.73-2.14-4.74-4.43-6.17-1.49-.93-2.75-2.02-3.8-3.44-1.31-1.78-3.08-3.05-5.36-4,2.89-.71,5.55-1.13,8.23-1.36,11.18-.95,22.03.5,32.39,4.92,11.1,4.74,20.09,12.04,26.37,22.46.83,1.39,1.51,2.87,2.24,4.32.09.18.35.4.08.65v-.02s.02,0,.02,0Z"/>
      <path class="cls-7" d="M96.73,58.97c0,6.49-.01,12.98.02,19.47,0,.79-.15,1.1-1.03,1.09-5.26-.05-10.51-.06-15.77-.04-.79,0-1.01-.24-1.02-1.03-.08-8.29-.19-16.57-.29-24.86-.06-4.83-.11-9.66-.21-14.49-.02-.89.23-1.13,1.11-1.11,5.32.12,10.65.19,15.97.23.83,0,1,.31.98,1.06-.04,1.9,0,3.81,0,5.71,0,4.65.25,8.25.25,12.91.08,0-.09,1.05-.01,1.05h0Z"/>
      <path class="cls-6" d="M27.98,55.54c-3.16,3.54-3.25,7.64-.34,10.49,2.47,2.42,6.2,2.52,8.7.24,3-2.75,2.8-6.63-.59-10.71,1.68-.36,3.32-.73,4.87-1.41.84-.37,1.71-.72,2.42-1.29.66-.53,1.03-.27,1.43.28,1.02,1.37,1.72,2.91,2.23,4.53,1.6,5.09,1.88,10.32,1.58,15.59-.11,1.86-.39,3.72-.55,5.58-.06.74-.34,1.01-1.12.96-1.37-.08-2.75-.08-4.13-.04-.64.02-.84-.17-.85-.83-.02-1.87-.12-3.74-.19-5.61-.06-1.55-.91-2.52-2.16-2.49-1.25.03-2.09,1.05-2.06,2.58.03,1.83.09,3.67.2,5.5.04.69-.18.82-.82.81-3.25-.05-6.49-.07-9.74-.06-.67,0-.91-.17-.91-.88-.01-1.83-.11-3.67-.19-5.5-.06-1.49-.88-2.44-2.09-2.45-1.25-.01-2.14,1-2.12,2.52.02,1.8.09,3.6.19,5.39.03.62-.08.88-.78.85-1.51-.07-3.04-.06-4.55-.06-.44,0-.73-.07-.8-.59-.96-7.16-1.12-14.27,1.02-21.28.52-1.69,1.26-3.29,2.37-4.69.4-.51.72-.69,1.37-.25,2.25,1.52,4.78,2.34,7.58,2.81h0Z"/>
      <path class="cls-6" d="M45.25,25.53c-.12,2.64-.36,5.29.68,7.83.07.18.1.34-.03.49-.85.9-1.09,2.12-1.7,3.15-3.27,5.45-10.51,7.83-16.92,5.49-3.94-1.43-6.74-4.04-8.51-7.89-.54-1.17-.44-2.09-.22-3.23.6-3.17.46-6.39.45-9.6,0-2.71.71-5.2,2.26-7.46,2.41-3.53,5.68-5.46,9.96-5.71,2.33-.13,4.65-.39,6.85.7,4.08,2.02,6.34,5.31,6.96,9.8.3,2.14.34,4.28.23,6.44h0ZM32.09,24.37c-1.32,0-2.61.09-3.79.75-1.23.68-1.73,1.64-1.37,2.99.41,1.57,1.27,2.9,2.66,3.79.88.56.93,1.26.52,2.08-.87,1.74-2.83,1.99-4.05.52-.49-.59-1.06-.97-1.84-.61-.82.38-1.09,1.11-.9,1.94.33,1.43,1.17,2.43,2.63,2.89,2.07.66,3.84.15,5.33-1.32.65-.64,1.09-.52,1.62,0,.67.65,1.46,1.1,2.34,1.39,2.32.79,4.93-.43,5.6-2.61.31-1.01.01-1.92-.76-2.27-.94-.43-1.57.09-2.03.82-.33.53-.77.81-1.37.83-1.04.03-2.36-.92-2.68-1.92-.22-.68-.13-1.26.54-1.64,1.26-.72,1.95-1.91,2.57-3.14.76-1.5.26-2.96-1.22-3.77-1.19-.65-2.48-.71-3.79-.72h0ZM24.26,16.59c-2.27,0-4.01,1.77-4.01,4.07,0,2.33,1.92,4.38,4.15,4.42,2.16.04,4.13-1.98,4.1-4.2-.03-2.39-1.92-4.3-4.24-4.29h0ZM40.15,16.81c-2.27.01-4,1.77-4.01,4.07,0,2.33,1.92,4.38,4.15,4.42,2.16.04,4.13-1.98,4.09-4.2-.04-2.39-1.92-4.3-4.24-4.29h0Z"/>
      <path class="cls-2" d="M4.57,56.53c.01-7.19,1.46-13.6,4.23-19.72.29-.64.49-.97,1.28-.55,1.36.71,2.83.86,4.3.32.48-.18.68-.03.87.41.43,1.01,1.21,1.86,1.58,2.86.38,1.04-.81,1.79-1.06,2.8-.49,2.04-.34,3.98.61,5.85.16.32.45.61.05,1.02-2.65,2.75-3.82,6.22-4.6,9.82-1.35,6.16-1.36,12.38-.57,18.62.06.49.41,1.28-.03,1.44-.65.23-.64-.67-.86-1.08-3.79-6.93-5.77-14.34-5.78-21.79h0Z"/>
      <path class="cls-7" d="M66.92,43.85v28.96c-.53.02-.62-.35-.79-.57-2.04-2.53-4.6-4.13-7.88-4.42-.82-.07-1.1-.37-1.1-1.23.02-5.22-.03-10.44-.04-15.66,0-.44-.22-1.01.59-1.1,4.05-.4,7.03-2.5,9.22-5.99h0Z"/>
      <path class="cls-7" d="M108.38,72.24c-.17-9.15-.33-18.01-.49-26.92.68.62,1.32,1.15,1.9,1.72,1.82,1.78,3.93,2.97,6.5,3.2.55.05.72.22.71.76-.12,5.25-.23,10.51-.33,15.76,0,.41-.14.63-.56.74-2.94.78-5.42,2.34-7.73,4.74h0Z"/>
      <path class="cls-7" d="M19.46,9.59c-.45.6-.82,1.11-1.21,1.61-2.47,3.15-3.48,6.79-3.51,10.74-.02,2.61.12,5.22-.21,7.82-.05.38-.1.77-.22,1.14-.56,1.76-1.53,2.11-3.11,1.18-3-1.77-4.16-4.74-5.13-7.85-.7-2.23-.25-4.13,1.35-5.84,1.35-1.44,2.67-2.95,3.52-4.74,1.26-2.66,3.52-3.6,6.17-3.97.71-.1,1.44-.36,2.34-.09Z"/>
      <path class="cls-7" d="M45.33,9.41c2.35.4,4.24,1.5,5.61,3.35,1.26,1.7,2.76,3.06,4.58,4.15,2.61,1.57,3.24,3.47,2.58,6.94-.27,1.44-.78,2.77-1.65,3.96-1.13,1.54-2.3,3.04-3.6,4.42-1.19,1.26-2.48.98-3.05-.67-.41-1.21-.51-2.46-.42-3.75.25-3.48.29-6.96-.33-10.43-.47-2.62-1.48-4.98-3.19-7.04-.18-.22-.34-.45-.51-.68-.02-.02,0-.07-.02-.26h0Z"/>
      <path class="cls-1" d="M71.07,68.95c0-2.94-.11-5.88.02-8.82.32-7.24.09-14.47.17-21.71,0-.88.3-1.02,1.1-.86,1.91.38,1.91.35,1.91,2.4.01,4.59-.12,9.19.07,13.77.23,5.55-.02,11.11.22,16.65.12,2.76.05,5.51.17,8.26.03.82-.25,1.03-1.04,1.03-2.62-.01-2.62.02-2.62-2.55v-8.18h.01Z"/>
      <path class="cls-1" d="M102.64,80.06c-.25,0-.51-.03-.76,0-.77.1-.98-.23-.98-.98.03-3.33.02-6.66,0-9.99-.07-10.02-.15-20.04-.2-30.07,0-.38-.25-1.01.36-1.09.77-.09,1.58-.23,2.33.13.12.05.12.39.13.6.07,2.06.17,4.11.2,6.17.1,6.73.05,13.46.29,20.18.15,4.05.06,8.1.18,12.15.02.54.11,1.07.18,1.61.12.91-.1,1.5-1.19,1.3-.17-.03-.36,0-.54,0h0Z"/>
      <path class="cls-2" d="M90.99,34.03c-3.84,0-6.52-.26-10.36-.23-.67,0-.97-.1-1.01-.89-.07-1.2-.07-2.39-.06-3.59,0-1.03.53-1.56,1.55-1.62.46-.03.92-.04,1.37-.05,3.49,0,6.98-.01,10.47.01,1.95.01,2.28.37,2.3,2.29.01,1.09-.02,2.19.01,3.28.01.58-.17.83-.78.79-.77-.05-1.55-.01-2.33-.01,0-.08,0,.08,0,0l-1.16.02Z"/>
      <path class="cls-3" d="M32.18,51.6c-3.42.01-6.37-.58-9.06-2.13-1.58-.92-2.98-2.04-3.37-3.99-.04-.21-.1-.42-.08-.62.04-.49,0-1.11.44-1.35.4-.22.72.32,1.05.55,6.37,4.53,14.91,4.71,21.51.46.26-.17.52-.53.82-.36.32.18.27.62.26.97-.04,1.24-.64,2.22-1.5,3.05-1.96,1.9-4.42,2.69-7.02,3.16-1.11.21-2.24.28-3.04.25h0Z"/>
      <path class="cls-5" d="M117.13,44.33c-.13,1.86-.39,2.06-1.86,1.36-2.83-1.34-4.62-3.62-5.64-6.54-.18-.52-.06-.67.5-.67,2.31.04,4.29.93,5.9,2.48.97.94.99,2.36,1.1,3.37h0Z"/>
      <path class="cls-5" d="M109.17,79.45c1.15-3.59,3.38-6,6.72-7.43.55-.24.71-.13.73.49.08,1.87-.06,3.63-1.41,5.13-1.62,1.81-3.69,2.01-6.04,1.82h0Z"/>
      <path class="cls-5" d="M65.01,79.47c-4.78.31-7.6-3.67-7.69-6.69-.02-.76.21-.86.9-.73,1.59.29,2.91,1.01,4.01,2.18,1.4,1.49,2.23,3.28,2.78,5.25h0Z"/>
      <path class="cls-5" d="M57.55,45.57c-.47.06-.59-.11-.54-.61.37-3.55,3.24-6.51,6.8-6.96.32-.04.78-.26.65.4-.63,3.36-2.91,6.52-6.49,7.11-.14.02-.28.03-.42.05h0Z"/>
      <path class="cls-2" d="M120.91,67.27c.12-6.9.25-13.79.38-20.69,1.72,6.93,1.57,13.83-.38,20.69Z"/>
      <path class="cls-5" d="M34.22,61.27c0,1.36-.87,2.37-2.02,2.37-1.34,0-2.43-1.2-2.42-2.67,0-1.36.86-2.38,2.01-2.39,1.3,0,2.44,1.26,2.43,2.68h0Z"/>
      <path class="cls-2" d="M118.09,36.96h.14s-.03.07-.04.11c-.03-.04-.06-.09-.08-.13v.02s-.01,0-.01,0Z"/>
      <path class="cls-4" d="M32.09,24.37c1.3.01,2.6.07,3.79.72,1.48.81,1.98,2.27,1.22,3.77-.62,1.22-1.32,2.42-2.57,3.14-.67.38-.76.96-.54,1.64.32.99,1.64,1.95,2.68,1.92.6-.02,1.03-.29,1.37-.83.46-.73,1.08-1.24,2.03-.82.78.35,1.07,1.27.76,2.27-.67,2.18-3.28,3.4-5.6,2.61-.87-.3-1.66-.75-2.34-1.39-.53-.51-.98-.63-1.62,0-1.48,1.46-3.26,1.97-5.33,1.32-1.46-.47-2.3-1.46-2.63-2.89-.19-.83.08-1.56.9-1.94.77-.36,1.35.03,1.84.61,1.22,1.46,3.18,1.22,4.05-.52.41-.82.36-1.52-.52-2.08-1.39-.89-2.25-2.22-2.66-3.79-.35-1.36.14-2.31,1.37-2.99,1.18-.65,2.48-.75,3.79-.75h0Z"/>
      <path class="cls-4" d="M24.26,16.59c2.32-.01,4.2,1.9,4.24,4.29.03,2.22-1.94,4.24-4.1,4.2-2.23-.04-4.16-2.09-4.15-4.42,0-2.3,1.74-4.06,4.01-4.07h0ZM23.01,18.5c-.77.02-1.26.46-1.24,1.16.02.73.62,1.1,1.32,1.06.67-.04,1.24-.31,1.19-1.16-.05-.82-.59-1.02-1.27-1.06h0Z"/>
      <path class="cls-4" d="M40.15,16.81c2.32-.01,4.2,1.9,4.24,4.29.03,2.22-1.93,4.24-4.09,4.2-2.23-.04-4.16-2.09-4.15-4.42,0-2.3,1.74-4.06,4.01-4.07ZM39.13,18.73c-.96-.02-1.45.41-1.47,1.1-.02.73.57,1.12,1.27,1.1.67-.02,1.25-.26,1.23-1.11-.02-.81-.53-1.06-1.04-1.1Z"/>
      <path class="cls-6" d="M23.01,18.5c.68.03,1.22.24,1.27,1.06.05.85-.51,1.12-1.19,1.16-.7.04-1.3-.33-1.32-1.06-.02-.69.46-1.14,1.24-1.16h0Z"/>
      <path class="cls-6" d="M39.13,18.73c.51.04,1.02.29,1.04,1.1.02.85-.57,1.09-1.23,1.11-.71.02-1.29-.37-1.27-1.1.02-.69.51-1.12,1.47-1.1Z"/>
    </g>
  </g>
</svg>